
    <svg width="400" height="200" viewBox="0 0 400 200" xmlns="http://www.w3.org/2000/svg">
      <style>
        .bg { fill: #0d1117; }
        .title { font: bold 16px 'Segoe UI', sans-serif; fill: #e6edf3; }
        .center { font: bold 22px 'Segoe UI', sans-serif; fill: #e6edf3; }
        .sub { font: 12px 'Segoe UI', sans-serif; fill: #8b949e; }
        .legend { font: 12px 'Segoe UI', sans-serif; fill: #e6edf3; }
      </style>
      <rect width="400" height="200" class="bg" rx="10" />
      
      <text x="200" y="25" text-anchor="middle" class="title">Top Languages</text>
      
      <g transform="translate(40, 20)">
        <circle cx="100" cy="100" r="70" fill="none" stroke="#21262d" stroke-width="15" />
        <path d="M100,30 A70,70 0 0,1 117.36272659596085,167.8125041946831" fill="none" stroke="#e34c26" stroke-width="15" /><path d="M117.36272659596085,167.8125041946831 A70,70 0 0,1 51.37903572760576,49.64126855030438" fill="none" stroke="#563d7c" stroke-width="15" /><path d="M51.37903572760576,49.64126855030438 A70,70 0 0,1 90.70528532861516,30.619827910435802" fill="none" stroke="#b07219" stroke-width="15" /><path d="M90.70528532861516,30.619827910435802 A70,70 0 0,1 97.75132932159673,30.0361273214519" fill="none" stroke="#f1e05a" stroke-width="15" /><path d="M97.75132932159673,30.0361273214519 A70,70 0 0,1 99.99999999999999,30" fill="none" stroke="#3572A5" stroke-width="15" />
        <text x="100" y="95" text-anchor="middle" class="center">5</text>
        <text x="100" y="115" text-anchor="middle" class="sub">Langs</text>
      </g>

      <g transform="translate(250, 60)">
         
            <circle cx="0" cy="0" r="5" fill="#e34c26" />
            <text x="15" y="4" class="legend">HTML: 269394</text>
         
            <circle cx="0" cy="22" r="5" fill="#563d7c" />
            <text x="15" y="26" class="legend">CSS: 244557</text>
         
            <circle cx="0" cy="44" r="5" fill="#b07219" />
            <text x="15" y="48" class="legend">Java: 59142</text>
         
            <circle cx="0" cy="66" r="5" fill="#f1e05a" />
            <text x="15" y="70" class="legend">JavaScript: 9416</text>
         
            <circle cx="0" cy="88" r="5" fill="#3572A5" />
            <text x="15" y="92" class="legend">Python: 2994</text>
         
      </g>
    </svg>