
    <svg width="200" height="200" viewBox="0 0 200 200" xmlns="http://www.w3.org/2000/svg">
      <style>path { transition: 0.3s; } path:hover { opacity: 0.8; }</style>
      <circle cx="100" cy="100" r="100" fill="#0d1117" />
      
      <g transform="rotate(-90 100 100)">
        <path d="M100,100 L180,100 A80,80 0 0,1 22.35010813195599,119.2482283049914 Z" fill="#e34c26" stroke="#0d1117" stroke-width="2"/><path d="M100,100 L22.35010813195599,119.2482283049914 A80,80 0 0,1 158.3595920432084,45.2811000060282 Z" fill="#663399" stroke="#0d1117" stroke-width="2"/><path d="M100,100 L158.3595920432084,45.2811000060282 A80,80 0 0,1 179.45435802071574,90.67235337740945 Z" fill="#b07219" stroke="#0d1117" stroke-width="2"/><path d="M100,100 L179.45435802071574,90.67235337740945 A80,80 0 0,1 179.95849231751856,97.42327605100431 Z" fill="#f1e05a" stroke="#0d1117" stroke-width="2"/><path d="M100,100 L179.95849231751856,97.42327605100431 A80,80 0 0,1 180,99.99999999999999 Z" fill="#3572A5" stroke="#0d1117" stroke-width="2"/>
      </g>
      
      <circle cx="100" cy="100" r="50" fill="#0d1117" />
      
      <text x="50%" y="50%" text-anchor="middle" dy=".3em" fill="#e6edf3" font-family="Segoe UI, sans-serif" font-weight="bold" font-size="20">
        5 Langs
      </text>
    </svg>
  