
    <svg width="400" height="200" viewBox="0 0 400 200" xmlns="http://www.w3.org/2000/svg">
      <style>
        .bg { fill: #0d1117; }
        .title { font: bold 16px 'Segoe UI', sans-serif; fill: #e6edf3; }
        .center { font: bold 22px 'Segoe UI', sans-serif; fill: #e6edf3; }
        .sub { font: 12px 'Segoe UI', sans-serif; fill: #8b949e; }
        .legend { font: 12px 'Segoe UI', sans-serif; fill: #e6edf3; }
      </style>
      <rect width="400" height="200" class="bg" rx="10" />
      
      <text x="200" y="25" text-anchor="middle" class="title">My Contributions</text>
      
      <g transform="translate(40, 20)">
        <circle cx="100" cy="100" r="70" fill="none" stroke="#21262d" stroke-width="15" />
        <path d="M100,30 A70,70 0 1,1 38.15415688877839,67.21140915101469" fill="none" stroke="#2ecc71" stroke-width="15" /><path d="M38.15415688877839,67.21140915101469 A70,70 0 0,1 51.86103788026037,49.18031556538084" fill="none" stroke="#f1c40f" stroke-width="15" /><path d="M51.86103788026037,49.18031556538084 A70,70 0 0,1 99.99999999999999,30" fill="none" stroke="#6f42c1" stroke-width="15" />
        <text x="100" y="95" text-anchor="middle" class="center">48</text>
        <text x="100" y="115" text-anchor="middle" class="sub">Total</text>
      </g>

      <g transform="translate(250, 60)">
         
            <circle cx="0" cy="0" r="5" fill="#2ecc71" />
            <text x="15" y="4" class="legend">Commits: 48</text>
         
            <circle cx="0" cy="22" r="5" fill="#3498db" />
            <text x="15" y="26" class="legend">PRs: 0</text>
         
            <circle cx="0" cy="44" r="5" fill="#e74c3c" />
            <text x="15" y="48" class="legend">Issues: 0</text>
         
            <circle cx="0" cy="66" r="5" fill="#f1c40f" />
            <text x="15" y="70" class="legend">Stars: 3</text>
         
            <circle cx="0" cy="88" r="5" fill="#6f42c1" />
            <text x="15" y="92" class="legend">Repos: 7</text>
         
      </g>
    </svg>